<?xml version="1.0" encoding="UTF-8" standalone="no"?>
<!-- Created with Inkscape (http://www.inkscape.org/) -->

<svg
   xmlns:dc="http://purl.org/dc/elements/1.1/"
   xmlns:cc="http://creativecommons.org/ns#"
   xmlns:rdf="http://www.w3.org/1999/02/22-rdf-syntax-ns#"
   xmlns:svg="http://www.w3.org/2000/svg"
   xmlns="http://www.w3.org/2000/svg"
   xmlns:sodipodi="http://sodipodi.sourceforge.net/DTD/sodipodi-0.dtd"
   xmlns:inkscape="http://www.inkscape.org/namespaces/inkscape"
   width="490.59375"
   height="490.8125"
   id="svg3842"
   version="1.1"
   inkscape:version="0.48.4 r9939"
   sodipodi:docname="drawing.svg">
  <defs
     id="defs3844" />
  <sodipodi:namedview
     id="base"
     pagecolor="#ffffff"
     bordercolor="#666666"
     borderopacity="1.0"
     inkscape:pageopacity="0.0"
     inkscape:pageshadow="2"
     inkscape:zoom="0.35"
     inkscape:cx="163.125"
     inkscape:cy="173.95032"
     inkscape:document-units="px"
     inkscape:current-layer="layer1"
     showgrid="false"
     inkscape:window-width="491"
     inkscape:window-height="392"
     inkscape:window-x="713"
     inkscape:window-y="343"
     inkscape:window-maximized="0"
     fit-margin-top="0"
     fit-margin-left="0"
     fit-margin-right="0"
     fit-margin-bottom="0" />
  <metadata
     id="metadata3847">
    <rdf:RDF>
      <cc:Work
         rdf:about="">
        <dc:format>image/svg+xml</dc:format>
        <dc:type
           rdf:resource="http://purl.org/dc/dcmitype/StillImage" />
        <dc:title></dc:title>
      </cc:Work>
    </rdf:RDF>
  </metadata>
  <g
     inkscape:label="Layer 1"
     inkscape:groupmode="layer"
     id="layer1"
     transform="translate(-211.875,-215.5)">
    <path
       inkscape:connector-curvature="0"
       id="path6"
       d="m 212.14286,215.93361 c 0,0 12.97493,7.67832 31.65614,31.65614 26.30101,28.22422 29.39323,29.87786 57.25432,57.25432 33.86062,25.94252 15.86759,19.06344 51.79168,51.79168 44.98862,58.79807 70.53441,78.32816 100.05575,100.05575 37.00194,36.40866 32.92229,33.37337 55.39259,55.39259 19.79549,5.85173 24.27506,34.15176 70.21551,70.21551 15.4431,23.39607 10.4048,13.25125 31.37141,31.37141 6.50905,11.47251 14.73866,9.81457 32.91851,32.91851 33.16002,37.81584 59.34409,59.34409 59.34409,59.34409"
       style="fill:none;stroke:#000000" />
  </g>
</svg>
