<?xml version="1.0" encoding="utf-8" ?>
<svg baseProfile="full" height="520.0" version="1.1" viewBox="0.0 -10.0 1010.0 520.0" width="1010.0" xmlns="http://www.w3.org/2000/svg" xmlns:ev="http://www.w3.org/2001/xml-events" xmlns:xlink="http://www.w3.org/1999/xlink"><defs /><path d="M 10,12 C 38.0872808089,33.784721005 17.7690888374,12.6883855112 45.2825878691,48.6338359151 89.1090252476,100.085759543 69.1691062415,79.3821840643 105.941080536,111.615419791 153.42889363,165.252445201 158.120366883,170.123591898 204.14139332,213.576595617 230.935919228,228.796643184 243.06014401,241.385199979 254.954299964,266.335528474 296.129209151,322.39217783 343.206937614,371.272883128 401.437307608,418.428523644 443.596832266,451.513717085 449.733593537,457.885503256 480,500" fill="none" stroke="black" stroke-width="1" /><path d="M 1000,0 C 953.74662565,23.6040759012 981.494041197,14.3549373855 943.08475762,18.9717474601 789.53524718,61.0991417088 856.453576121,38.7930320619 722.765246105,92.4115846316 705.045021545,85.7869362227 702.226588669,86.726413848 700,100 683.498364042,97.2021620406 642.147172722,113.742638569 624.353861069,130.258455573 585.040408262,135.484361572 560.574041192,145.2709084 535.27620719,165.889517124 513.79047209,170.136472888 523.45198426,166.271868021 495.805131605,181.677947358 430.062278108,198.469360814 425.92586659,200.123925421 361.825836353,235.269665459 309.556456362,255.999575604 247.371418611,280.873590704 200,300" fill="none" stroke="black" stroke-width="1" /></svg>