<?xml version="1.0" encoding="utf-8" ?>
<svg baseProfile="full" height="520.0" version="1.1" viewBox="90.0 -10.0 1020.0 520.0" width="1020.0" xmlns="http://www.w3.org/2000/svg" xmlns:ev="http://www.w3.org/2001/xml-events" xmlns:xlink="http://www.w3.org/1999/xlink"><defs /><path d="M 200,300 L 100,100 200,400 500,500 600,400 800,300 900,500 1000,400 1100,200 1000,0 700,100 400,200 200,300" fill="none" stroke="red" stroke-width="1" /><path d="M 900,200 L 900,300 1000,300 1000,200 900,200" fill="none" stroke="red" stroke-width="1" /><path d="M 200,300 C 186.083705108,283.162141819 171.710541789,254.415815181 175.518069478,251.036138956 130.282964986,143.845547286 152.960163535,189.199944384 100,100" fill="none" stroke="green" stroke-width="1" /><path d="M 100,100 C 110.188397602,151.824961877 100.939259086,124.07754633 118.97174746,156.91524238 156.914130657,294.788583447 134.60802101,227.870254507 192.411584632,377.234753895 187.989235558,377.259043229 188.928713183,380.077476105 200,400 234.156362651,408.626892729 224.713238272,405.479184602 256.91524238,418.97174746 390.603572396,461.099141709 323.685243455,438.793032062 477.234753895,492.411584632 479.461342564,485.786936223 482.27977544,486.726413848 500,500" fill="none" stroke="green" stroke-width="1" /><path d="M 500,500 C 514.702335335,475.694233592 585.655166507,404.74140242 600,400 629.369972059,383.179519492 622.966315346,386.381347849 648.963861044,375.518069478 679.735526368,354.373574753 750.555110805,318.963782535 800,300" fill="none" stroke="green" stroke-width="1" /><path d="M 800,300 C 814.860573554,339.123036322 809.479119877,328.360128968 824.481930522,348.963861044 877.442094057,438.163805428 854.764895508,392.80940833 900,500" fill="none" stroke="green" stroke-width="1" /><path d="M 900,500 C 914.702335335,475.694233592 985.655166507,404.74140242 1000,400 1018.77879463,363.977506976 1003.95837486,393.618346524 1024.48193052,351.036138956 1066.68480091,277.978599601 1059.45571547,292.436770486 1100,200 1079.47644434,163.977506976 1094.29686411,193.618346524 1075.51806948,151.036138956 1034.97378494,77.9785996006 1042.20287039,92.4367704864 1000,0" fill="none" stroke="green" stroke-width="1" /><path d="M 1000,0 C 953.74662565,23.6040759012 981.494041197,14.3549373855 943.08475762,18.9717474601 789.53524718,61.0991417088 856.453576121,38.7930320619 722.765246105,92.4115846316 705.045021545,85.7869362227 702.226588669,86.726413848 700,100 653.74662565,123.604075901 681.494041197,114.354937386 643.08475762,118.97174746 489.53524718,161.099141709 556.453576121,138.793032062 422.765246105,192.411584632 405.045021545,185.786936223 402.226588669,186.726413848 400,200 381.029321506,198.325292624 352.282994868,212.698455943 351.036138956,224.481930522 256.70340045,264.584240893 302.057797548,241.907042344 200,300" fill="none" stroke="green" stroke-width="1" /><path d="M 900,200 C 894.068939497,217.831223851 894.068939497,290.533735517 900,300" fill="none" stroke="green" stroke-width="1" /><path d="M 900,300 C 907.717683664,304.182479684 980.42019533,304.182479684 1000,300" fill="none" stroke="green" stroke-width="1" /><path d="M 1000,300 C 994.068939497,290.533735517 994.068939497,217.831223851 1000,200" fill="none" stroke="green" stroke-width="1" /><path d="M 1000,200 C 980.42019533,204.182479684 907.717683664,204.182479684 900,200" fill="none" stroke="green" stroke-width="1" /></svg>