<?xml version="1.0" encoding="utf-8" ?>
<svg baseProfile="full" height="100%" version="1.1" viewBox="0.0 0.0 520.0 610.0" width="100%" xmlns="http://www.w3.org/2000/svg" xmlns:ev="http://www.w3.org/2001/xml-events" xmlns:xlink="http://www.w3.org/1999/xlink"><defs /><path d="M 10 10 L 510 10" fill="none" stroke="mistyrose" stroke-width="1" /><path d="M 10 10 L 17.6525335809 10.0 202.421854964 10.0 302.772864224 10.0 359.260938851 10.0 414.770038313 10.0 510 10" fill="none" stroke="orange" stroke-width="1" /><path d="M 10 100 L 510 300" fill="none" stroke="mistyrose" stroke-width="1" /><path d="M 10 100 L 108.472061587 139.388824635 150.935435081 156.374174032 179.149349842 167.659739937 195.539321722 174.215728689 472.417576577 284.967030631 506.734340929 298.693736372 510 300" fill="none" stroke="red" stroke-width="1" /><path d="M 10 120 L 510 320" fill="none" stroke="honeydew" stroke-width="1" /><path d="M 10 120 L 10.0 120.0 93.3333333333 153.333333333 176.666666667 186.666666667 260.0 220.0 343.333333333 253.333333333 426.666666667 286.666666667 510 320" fill="none" stroke="green" stroke-width="1" /><path d="M 10 145 L 10.0 145.0 110.0 185.0 210.0 225.0 310.0 265.0 410.0 305.0 510 345" fill="none" stroke="lightcyan" stroke-width="1" /><path d="M 10 140 L 510 340" fill="none" stroke="lightcyan" stroke-width="1" /><path d="M 10 140 L 102.483515315 176.993406126 209.346868186 219.738747274 247.107864344 234.843145738 338.187087016 271.274834806 443.829869968 313.531947987 510 340" fill="none" stroke="blue" stroke-width="1" /><path d="M 10 300 L 10 600" fill="none" stroke="mistyrose" stroke-width="1" /><path d="M 10 300 L 10.0 334.841752632 10.0 373.440750702 10.0 479.790576009 10.0 532.495471294 10.0 549.864736145 10 600" fill="none" stroke="orange" stroke-width="1" /><circle cx="56.4238345443" cy="138.569533818" fill="red" r="2" stroke="none" stroke-width="2" /></svg>