<?xml version="1.0" encoding="utf-8" ?>
<svg baseProfile="full" height="610.0" version="1.1" viewBox="0.0 0.0 520.0 610.0" width="520.0" xmlns="http://www.w3.org/2000/svg" xmlns:ev="http://www.w3.org/2001/xml-events" xmlns:xlink="http://www.w3.org/1999/xlink"><defs /><path d="M 10,10 L 510,10" fill="none" stroke="mistyrose" stroke-width="1" /><path d="M 10,10 L 58.5847901688,10.0 114.364097472,10.0 141.196225245,10.0 219.560656949,10.0 289.244233931,10.0 355.917733842,10.0 446.144316307,10.0 455.644709385,10.0 510,10" fill="none" stroke="orange" stroke-width="1" /><path d="M 10,100 L 510,300" fill="none" stroke="mistyrose" stroke-width="1" /><path d="M 10,100 L 30.9743419753,108.38973679 44.1836221539,113.673448862 90.5207125893,132.208285036 105.435409117,138.174163647 130.104812738,148.041925095 187.398615104,170.959446042 333.618964051,229.44758562 388.230694657,251.292277863 453.021247863,277.208499145 510,300" fill="none" stroke="red" stroke-width="1" /><path d="M 10,120 L 510,320" fill="none" stroke="honeydew" stroke-width="1" /><path d="M 10,120 L 10.0,120.0 65.5555555556,142.222222222 121.111111111,164.444444444 176.666666667,186.666666667 232.222222222,208.888888889 287.777777778,231.111111111 343.333333333,253.333333333 398.888888889,275.555555556 454.444444444,297.777777778 510,320" fill="none" stroke="green" stroke-width="1" /><path d="M 10,145 L 10.0,145.0 72.5,170.0 135.0,195.0 197.5,220.0 260.0,245.0 322.5,270.0 385.0,295.0 447.5,320.0 510,345" fill="none" stroke="lightcyan" stroke-width="1" /><path d="M 10,140 L 510,340" fill="none" stroke="lightcyan" stroke-width="1" /><path d="M 10,140 L 57.2788368322,158.911534733 112.952370506,181.180948203 137.621792747,191.048717099 209.42942614,219.771770456 264.272952769,241.709181108 377.877655983,287.151062393 407.174826888,298.869930755 462.513101592,321.005240637 510,340" fill="none" stroke="blue" stroke-width="1" /><path d="M 10,300 L 10,600" fill="none" stroke="mistyrose" stroke-width="1" /><path d="M 10,300 L 10.0,335.271055325 10.0,350.40021603 10.0,391.48026532 10.0,448.390708846 10.0,484.892992331 10.0,502.144838982 10.0,541.638852962 10.0,596.730520221 10,600" fill="none" stroke="orange" stroke-width="1" /><circle cx="56.4238345443" cy="138.569533818" fill="red" r="2" stroke="none" stroke-width="2" /></svg>